<svg xmlns="http://www.w3.org/2000/svg" xmlns:xlink="http://www.w3.org/1999/xlink" width="65.5" height="65.5" viewBox="0 0 65.5 65.5"><defs><style>.a,.d{fill:#fff;}.b{fill:#ff8f43;}.c{fill:#0f5eea;}.d{font-size:14px;font-family:Roboto-Regular, Roboto;}.e{filter:url(#c);}.f{filter:url(#a);}</style><filter id="a" x="0" y="13.5" width="52" height="52" filterUnits="userSpaceOnUse"><feOffset dx="1" dy="3" input="SourceAlpha"/><feGaussianBlur stdDeviation="1.5" result="b"/><feFlood flood-color="#ff8f43" flood-opacity="0.302"/><feComposite operator="in" in2="b"/><feComposite in="SourceGraphic"/></filter><filter id="c" x="25.5" y="0" width="40" height="40" filterUnits="userSpaceOnUse"><feOffset dy="3" input="SourceAlpha"/><feGaussianBlur stdDeviation="3" result="d"/><feFlood flood-opacity="0.161"/><feComposite operator="in" in2="d"/><feComposite in="SourceGraphic"/></filter></defs><g transform="translate(12.5 10.676)"><g class="f" transform="matrix(1, 0, 0, 1, -12.5, -10.68)"><rect class="a" width="43" height="43" rx="6" transform="translate(3.5 15)"/></g><path class="b" d="M19.085,18.661,17.441,5.672a.874.874,0,0,0-.822-.74H14.153V4.11a4.11,4.11,0,0,0-8.221,0v.822H3.466a.874.874,0,0,0-.822.74L1,18.825a1.549,1.549,0,0,0,.164.658.933.933,0,0,0,.658.247H18.263a.777.777,0,0,0,.822-.822ZM7.576,4.11a2.466,2.466,0,0,1,4.932,0v.822H7.576Z" transform="translate(2.644 15.724)"/><g transform="translate(20.647 -9)"><g class="e" transform="matrix(1, 0, 0, 1, -33.15, -1.68)"><circle class="c" cx="11" cy="11" r="11" transform="translate(34.5 6)"/></g><text class="d" transform="translate(8.353 19.324)"><tspan x="0" y="0">2</tspan></text></g></g></svg>