<svg xmlns="http://www.w3.org/2000/svg" width="9.984" height="19.765" viewBox="0 0 9.984 19.765"><defs><style>.a{fill:#385c8e;}</style></defs><path class="a" d="M127,10.527h2.166v8.919a.319.319,0,0,0,.319.319h3.674a.319.319,0,0,0,.319-.319V10.569h2.491a.319.319,0,0,0,.317-.282L136.664,7a.319.319,0,0,0-.317-.355h-2.869V4.589c0-.62.334-.935.993-.935h1.876a.319.319,0,0,0,.319-.319V.321A.319.319,0,0,0,136.347,0h-2.585c-.018,0-.059,0-.118,0A4.954,4.954,0,0,0,130.4,1.221a3.4,3.4,0,0,0-1.13,3.019V6.647H127a.319.319,0,0,0-.319.319v3.242A.319.319,0,0,0,127,10.527Z" transform="translate(-126.682)"/></svg>