<svg xmlns="http://www.w3.org/2000/svg" xmlns:xlink="http://www.w3.org/1999/xlink" width="20.17" height="17.604" viewBox="0 0 20.17 17.604"><defs><style>.a{fill:#4989f5;}.b{fill:url(#a);}.c,.g{fill:#3c4ba6;}.d{fill:#7babf7;}.e{fill:#3f51b5;}.f{fill:#709be0;}.f,.g{fill-rule:evenodd;}.h{fill:#fff;}</style><linearGradient id="a" y1="0.5" x2="1" y2="0.5" gradientUnits="objectBoundingBox"><stop offset="0.03" stop-color="#4079d8"/><stop offset="1" stop-color="#4989f5"/></linearGradient></defs><g transform="translate(0 -0.43)"><g transform="translate(0 0.43)"><rect class="a" width="17.648" height="13.196" rx="2" transform="translate(1.013 4.408)"/><path class="b" d="M70.705,227.75H54.844c-.491,0-.874,3.8-.874,4.294l8.686,9h8.049a.9.9,0,0,0,.893-.893V228.643A.9.9,0,0,0,70.705,227.75Z" transform="translate(-52.947 -223.441)"/><path class="c" d="M266.03,7.058h5.042V.44h-4.287Z" transform="translate(-260.987 -0.44)"/><path class="d" d="M537.072,7.058H532.03V.44h4.287Zm3.534-5.363.006.023C540.611,1.709,540.608,1.7,540.606,1.695Z" transform="translate(-521.945 -0.44)"/><path class="e" d="M762.5,1.707l-.006-.023A1.6,1.6,0,0,0,760.932.43H758.2l.755,6.618H764Z" transform="translate(-743.827 -0.43)"/><path class="d" d="M79.286,66.62l-.006.023C79.282,66.635,79.285,66.627,79.286,66.62Z" transform="translate(-77.777 -65.365)"/><path class="d" d="M1.5,1.707l.006-.023A1.6,1.6,0,0,1,3.066.43H5.8L5.042,7.048H0Z" transform="translate(0 -0.43)"/></g><path class="f" d="M5.67,349.47a2.52,2.52,0,0,1-5.04,0Z" transform="translate(-0.618 -342.424)"/><path class="g" d="M271.52,349.47a2.52,2.52,0,0,1-5.04,0Z" transform="translate(-261.429 -342.424)"/><path class="f" d="M537.37,349.47a2.52,2.52,0,1,1-5.039,0Z" transform="translate(-522.239 -342.424)"/><path class="g" d="M803.19,349.47a2.52,2.52,0,1,1-5.039,0Z" transform="translate(-783.02 -342.424)"/><path class="h" d="M635.241,568.91c-.009-.12-.024-.23-.045-.37h-2.749c0,.384,0,.8,0,1.189h1.592a1.385,1.385,0,0,1-.583.889s0-.007,0-.007a1.668,1.668,0,0,1-.644.252,1.893,1.893,0,0,1-.7,0,1.743,1.743,0,0,1-.65-.282,1.814,1.814,0,0,1-.639-.817c-.01-.026-.019-.051-.028-.078v0l0,0a1.763,1.763,0,0,1,0-1.134,1.825,1.825,0,0,1,.423-.688,1.718,1.718,0,0,1,1.731-.451,1.573,1.573,0,0,1,.63.371l.537-.537c.095-.1.193-.188.284-.287a2.838,2.838,0,0,0-.941-.583,2.959,2.959,0,0,0-1.968-.017l-.066.024a2.941,2.941,0,0,0-1.589,1.424,2.892,2.892,0,0,0-.254.735,2.924,2.924,0,0,0,2.108,3.4,3.128,3.128,0,0,0,1.5.016,2.572,2.572,0,0,0,1.936-1.84A3.393,3.393,0,0,0,635.241,568.91Z" transform="translate(-617.591 -555.037)"/></g></svg>