<svg xmlns="http://www.w3.org/2000/svg" width="24.789" height="24.789" viewBox="0 0 24.789 24.789"><defs><style>.a{fill:none;}.b{fill:#006df0;}</style></defs><path class="a" d="M33.653,408H32v3.305h1.653a1.653,1.653,0,1,0,0-3.305Zm0,0" transform="translate(-30.347 -386.929)"/><path class="a" d="M124.545,164.958c2.512,0,4.545-1.62,4.545-4.132V160H120v.826C120,163.338,122.033,164.958,124.545,164.958Zm0,0" transform="translate(-113.803 -151.737)"/><path class="a" d="M8,8V24.939h2.066v1.653h2.479V24.939H27.418v1.653H29.9V24.939h2.066V8ZM27,22.46H9.653V9.653H27Zm2.479-4.132a1.239,1.239,0,1,1,1.239-1.239A1.24,1.24,0,0,1,29.484,18.329Zm0-4.958a1.239,1.239,0,1,1,1.239-1.239A1.24,1.24,0,0,1,29.484,13.371Zm0,0" transform="translate(-7.587 -7.587)"/><g transform="translate(0)"><path class="b" d="M24.376,0H.413A.413.413,0,0,0,0,.413V17.352a.413.413,0,0,0,.413.413H2.066v1.239a.413.413,0,0,0,.413.413H4.958a.413.413,0,0,0,.413-.413V17.766H19.418v1.239a.413.413,0,0,0,.413.413H22.31a.413.413,0,0,0,.413-.413V17.766h.413V21.9a.413.413,0,0,1-.413.413H5.329a2.069,2.069,0,0,0-2.024-1.653H1.652a.413.413,0,0,0-.413.413v.413H0v.826H1.239v.826H0v.826H1.239v.413a.413.413,0,0,0,.413.413H3.305a2.069,2.069,0,0,0,2.024-1.653H22.723A1.24,1.24,0,0,0,23.963,21.9V17.766h.413a.413.413,0,0,0,.413-.413V.413A.413.413,0,0,0,24.376,0ZM3.305,23.963H2.066V21.484H3.305a1.239,1.239,0,1,1,0,2.479Zm1.239-5.371H2.892v-.826H4.544Zm17.352,0H20.244v-.826H21.9Zm2.066-1.653H.826V.826H23.963Zm0,0" transform="translate(0)"/><path class="b" d="M32.413,45.634H49.766a.413.413,0,0,0,.413-.413V32.413A.413.413,0,0,0,49.766,32H32.413a.413.413,0,0,0-.413.413V45.221A.413.413,0,0,0,32.413,45.634Zm3.718-.826a1.242,1.242,0,0,1-1.169-.826H47.216a1.242,1.242,0,0,1-1.169.826ZM32.826,32.826H49.352V44.808H47.689a2.045,2.045,0,0,0,.424-1.239.413.413,0,0,0-.413-.413H44.043a4.332,4.332,0,0,0,2-3.718V38.61a.413.413,0,0,0-.413-.413H36.545a.413.413,0,0,0-.413.413v.826a4.332,4.332,0,0,0,2,3.718H34.479a.413.413,0,0,0-.413.413,2.045,2.045,0,0,0,.424,1.239H32.826Zm8.263,10.329c-2.394,0-4.132-1.564-4.132-3.718v-.413h8.263v.413C45.221,41.591,43.483,43.155,41.089,43.155Zm0,0" transform="translate(-30.347 -30.347)"/><path class="b" d="M64,72h1.653v.826H64Zm0,0" transform="translate(-60.695 -68.282)"/><path class="b" d="M112,72h.826v.826H112Zm0,0" transform="translate(-106.216 -68.282)"/><path class="b" d="M393.653,59.305A1.653,1.653,0,1,0,392,57.653,1.653,1.653,0,0,0,393.653,59.305Zm-.413-2.364v.712h.826v-.712a.826.826,0,1,1-.826,0Zm0,0" transform="translate(-371.756 -53.108)"/><path class="b" d="M393.653,155.305A1.653,1.653,0,1,0,392,153.653,1.653,1.653,0,0,0,393.653,155.305Zm-.413-2.364v.711h.826v-.711a.826.826,0,1,1-.826,0Zm0,0" transform="translate(-371.756 -144.15)"/><path class="b" d="M400,240h2.479v.826H400Zm0,0" transform="translate(-379.342 -227.605)"/><path class="b" d="M48,424h.826v1.653H48Zm0,0" transform="translate(-45.521 -402.103)"/></g></svg>