<svg xmlns="http://www.w3.org/2000/svg" width="13.413" height="23.686" viewBox="0 0 13.413 23.686"><defs><style>.a{fill:#0f5eea;}</style></defs><path class="a" d="M17.64,0H7.675A1.724,1.724,0,0,0,5.951,1.725V21.963a1.723,1.723,0,0,0,1.724,1.724H17.64a1.724,1.724,0,0,0,1.724-1.724V1.725A1.725,1.725,0,0,0,17.64,0ZM10.2,1.048h4.92c.124,0,.225.186.225.415s-.1.416-.225.416H10.2c-.125,0-.224-.186-.224-.416S10.073,1.048,10.2,1.048Zm2.46,20.935a1.1,1.1,0,1,1,1.1-1.1A1.1,1.1,0,0,1,12.658,21.983Zm5.414-3.771H7.243V2.911h10.83v15.3Z" transform="translate(-5.951)"/></svg>