<svg xmlns="http://www.w3.org/2000/svg" width="23.684" height="23.684" viewBox="0 0 23.684 23.684"><defs><style>.a{fill:#0f5eea;}.b{fill:none;}</style></defs><path class="a" d="M127.842,371.383H124.3a.423.423,0,0,1-.423-.423V368h-2.538v2.96a.423.423,0,0,1-.423.423h-3.545l-.423.846h11.319Zm0,0" transform="translate(-110.763 -348.546)"/><path class="b" d="M32,32H52.3V47.225H32Zm0,0" transform="translate(-30.308 -30.308)"/><path class="a" d="M23.684,0H0V18.609H23.684Zm-.846,17.34a.423.423,0,0,1-.423.423H1.269a.423.423,0,0,1-.423-.423V1.269A.423.423,0,0,1,1.269.846H22.415a.423.423,0,0,1,.423.423Zm0,0"/></svg>