<svg xmlns="http://www.w3.org/2000/svg" width="25.308" height="23.393" viewBox="0 0 25.308 23.393"><defs><style>.a{fill:#0f5eea;}.b{fill:none;stroke:#0f5eea;}</style></defs><g transform="translate(0 0.5)"><g transform="translate(0 7.719)"><path class="a" d="M4.02,171.177v-3.133A1.02,1.02,0,0,0,3,167.025H1.019a1.02,1.02,0,0,0-1.019.99c.063.553.7,6.173.8,8.154a1.048,1.048,0,0,0,1.02,1.047h.587a2.138,2.138,0,0,1-.257-1.019V173.31A2.154,2.154,0,0,1,4.02,171.177Z" transform="translate(0 -167.025)"/><path class="a" d="M80.18,269.459v-2.888a1.02,1.02,0,0,0-1.019-1.019h-16.7a1.02,1.02,0,0,0-1.019,1.019v2.888a1.02,1.02,0,0,0,1.019,1.019h16.7A1.02,1.02,0,0,0,80.18,269.459Z" transform="translate(-58.156 -260.286)"/><path class="a" d="M399.357,167.024a1.02,1.02,0,0,0-1.019,1.019v3.133a2.154,2.154,0,0,1,1.868,2.132V176.2a2.137,2.137,0,0,1-.257,1.019h.587a1.048,1.048,0,0,0,1.02-1.047c.1-1.982.738-7.6.8-8.154a1.02,1.02,0,0,0-1.019-.99h-1.982Z" transform="translate(-377.05 -167.024)"/><path class="a" d="M32.813,377.019a2.135,2.135,0,0,1-.651.1h-.51l-.825,3.14a.566.566,0,1,0,1.1.288l.924-3.519Z" transform="translate(-29.162 -365.796)"/><path class="a" d="M405.794,377.12h-.51a2.136,2.136,0,0,1-.651-.1l-.034.01.924,3.519a.566.566,0,1,0,1.1-.288Z" transform="translate(-382.976 -365.796)"/></g><path class="b" d="M73.547,22.978a1.258,1.258,0,0,0-.9-.383H55.59a1.258,1.258,0,0,0-.9.383,1.109,1.109,0,0,0-.318.815c.034.9.2,3.128.372,5.406a2.154,2.154,0,0,1,1.873,2.133v3.114h15V31.333A2.155,2.155,0,0,1,73.455,29.2c.184-2.285.376-4.512.41-5.411A1.109,1.109,0,0,0,73.547,22.978ZM61.655,31.153h-.34a.566.566,0,0,1,0-1.132h.34a.566.566,0,0,1,0,1.132Zm0-4.19h-.34a.566.566,0,0,1,0-1.132h.34a.566.566,0,0,1,0,1.132Zm5.265,4.19h-.34a.566.566,0,1,1,0-1.132h.34a.566.566,0,0,1,0,1.132Zm0-4.19h-.34a.566.566,0,1,1,0-1.132h.34a.566.566,0,0,1,0,1.132Z" transform="translate(-51.464 -22.595)"/></g></svg>