<svg xmlns="http://www.w3.org/2000/svg" xmlns:xlink="http://www.w3.org/1999/xlink" width="20.985" height="20.985" viewBox="0 0 20.985 20.985"><defs><style>.a{fill:url(#a);}.b{fill:url(#b);}.c{fill:url(#c);}</style><linearGradient id="a" x1="0.092" y1="0.908" x2="0.908" y2="0.092" gradientUnits="objectBoundingBox"><stop offset="0" stop-color="#ffc107"/><stop offset="0.507" stop-color="#f44336"/><stop offset="0.99" stop-color="#9c27b0"/></linearGradient><linearGradient id="b" x1="0.146" y1="0.854" x2="0.854" y2="0.146" xlink:href="#a"/><linearGradient id="c" x1="0.146" y1="0.854" x2="0.854" y2="0.146" xlink:href="#a"/></defs><path class="a" d="M14.427,0H6.558A6.558,6.558,0,0,0,0,6.558v7.869a6.558,6.558,0,0,0,6.558,6.558h7.869a6.558,6.558,0,0,0,6.558-6.558V6.558A6.558,6.558,0,0,0,14.427,0Zm4.59,14.427a4.6,4.6,0,0,1-4.59,4.59H6.558a4.6,4.6,0,0,1-4.59-4.59V6.558a4.6,4.6,0,0,1,4.59-4.59h7.869a4.6,4.6,0,0,1,4.59,4.59Z"/><path class="b" d="M9.246,4a5.246,5.246,0,1,0,5.246,5.246A5.246,5.246,0,0,0,9.246,4Zm0,8.525a3.279,3.279,0,1,1,3.279-3.279A3.283,3.283,0,0,1,9.246,12.525Z" transform="translate(1.246 1.246)"/><ellipse class="c" cx="0.699" cy="0.699" rx="0.699" ry="0.699" transform="translate(15.433 4.154)"/></svg>