<svg xmlns="http://www.w3.org/2000/svg" width="20" height="20" viewBox="0 0 20 20"><defs><style>.a{fill:#117eb8;}.b{fill:#fff;fill-rule:evenodd;}</style></defs><g transform="translate(-0.271 -0.271)"><g transform="translate(0.256 0.256)"><rect class="a" width="20" height="20" rx="4" transform="translate(0.015 0.015)"/><path class="b" d="M12.592,16.875h2.763v8.889H12.592V16.875Zm1.382-4.419a1.6,1.6,0,1,1-1.6,1.6,1.6,1.6,0,0,1,1.6-1.6Zm3.114,4.419h2.65V18.09h.037a2.9,2.9,0,0,1,2.614-1.436c2.8,0,3.314,1.841,3.314,4.235v4.876H22.942V21.441c0-1.031-.019-2.357-1.436-2.357-1.438,0-1.658,1.123-1.658,2.282v4.4h-2.76V16.875Z" transform="translate(-9.14 -9.2)"/></g></g></svg>