<svg xmlns="http://www.w3.org/2000/svg" xmlns:xlink="http://www.w3.org/1999/xlink" width="24" height="24" viewBox="0 0 24 24"><defs><style>.a{fill:none;}.b,.c{fill:#fff;}.c{stroke-linecap:round;}.d{clip-path:url(#a);}.e,.f{stroke:none;}.f{fill:#0f5eea;}</style><clipPath id="a"><rect class="a" width="12" height="11"/></clipPath></defs><g transform="translate(-2.351 -0.342)"><path class="b" d="M0,0H24V24H0Z" transform="translate(2.351 0.342)"/><g transform="translate(-1624.198 -172.268)"><g class="c" transform="translate(1628.549 173.61)"><path class="e" d="M 18 21.5 L 2 21.5 C 1.172899961471558 21.5 0.5 20.82710075378418 0.5 20 L 0.5 2 C 0.5 1.172899961471558 1.172899961471558 0.5 2 0.5 L 18 0.5 C 18.82710075378418 0.5 19.5 1.172899961471558 19.5 2 L 19.5 20 C 19.5 20.82710075378418 18.82710075378418 21.5 18 21.5 Z"/><path class="f" d="M 2 1 C 1.448600769042969 1 1 1.448600769042969 1 2 L 1 20 C 1 20.55139923095703 1.448600769042969 21 2 21 L 18 21 C 18.55139923095703 21 19 20.55139923095703 19 20 L 19 2 C 19 1.448600769042969 18.55139923095703 1 18 1 L 2 1 M 2 0 L 18 0 C 19.10457038879395 0 20 0.8954296112060547 20 2 L 20 20 C 20 21.10457038879395 19.10457038879395 22 18 22 L 2 22 C 0.8954296112060547 22 0 21.10457038879395 0 20 L 0 2 C 0 0.8954296112060547 0.8954296112060547 0 2 0 Z"/></g><g class="c" transform="translate(1632.183 177.183)"><path class="e" d="M 11.98914813995361 0.9853804707527161 L 0.7426881790161133 0.9853804707527161 C 0.6088681817054749 0.9853804707527161 0.499998152256012 0.8765104413032532 0.499998152256012 0.7426904439926147 C 0.499998152256012 0.6088704466819763 0.6088681817054749 0.5000004172325134 0.7426881790161133 0.5000004172325134 L 11.98914813995361 0.5000004172325134 C 12.12296772003174 0.5000004172325134 12.23183822631836 0.6088704466819763 12.23183822631836 0.7426904439926147 C 12.23183822631836 0.8765104413032532 12.12296772003174 0.9853804707527161 11.98914813995361 0.9853804707527161 Z"/><path class="f" d="M 0.7426881790161133 4.76837158203125e-07 L 11.98914813995361 4.76837158203125e-07 C 12.39931774139404 4.76837158203125e-07 12.73183822631836 0.3325104713439941 12.73183822631836 0.7426904439926147 C 12.73183822631836 1.152870416641235 12.39931774139404 1.485380411148071 11.98914813995361 1.485380411148071 L 0.7426881790161133 1.485380411148071 C 0.3325185775756836 1.485380411148071 -1.9073486328125e-06 1.152870416641235 -1.9073486328125e-06 0.7426904439926147 C -1.9073486328125e-06 0.3325104713439941 0.3325185775756836 4.76837158203125e-07 0.7426881790161133 4.76837158203125e-07 Z"/></g><g class="d" transform="translate(1632.549 181.61)"><g transform="translate(-1632 -181)"><g class="c" transform="translate(1635 181)"><path class="e" d="M 8.399999618530273 0.7000000476837158 L 0.6000000238418579 0.7000000476837158 C 0.5448600053787231 0.7000000476837158 0.5 0.6551400423049927 0.5 0.6000000238418579 C 0.5 0.5448600053787231 0.5448600053787231 0.5 0.6000000238418579 0.5 L 8.399999618530273 0.5 C 8.455140113830566 0.5 8.5 0.5448600053787231 8.5 0.6000000238418579 C 8.5 0.6551400423049927 8.455140113830566 0.7000000476837158 8.399999618530273 0.7000000476837158 Z"/><path class="f" d="M 0.6000003814697266 0 L 8.399999618530273 0 C 8.731369972229004 0 9 0.2686300277709961 9 0.6000000238418579 C 9 0.9313700199127197 8.731369972229004 1.200000047683716 8.399999618530273 1.200000047683716 L 0.6000003814697266 1.200000047683716 C 0.2686300277709961 1.200000047683716 0 0.9313700199127197 0 0.6000000238418579 C 0 0.2686300277709961 0.2686300277709961 0 0.6000003814697266 0 Z"/></g><g class="c" transform="translate(1632 181)"><path class="e" d="M 0.75 1 C 0.6121500134468079 1 0.5 0.8878499865531921 0.5 0.75 C 0.5 0.6121500134468079 0.6121500134468079 0.5 0.75 0.5 C 0.8878499865531921 0.5 1 0.6121500134468079 1 0.75 C 1 0.8878499865531921 0.8878499865531921 1 0.75 1 Z"/><path class="f" d="M 0.75 0 C 1.164209961891174 0 1.5 0.3357900381088257 1.5 0.75 C 1.5 1.164209961891174 1.164209961891174 1.5 0.75 1.5 C 0.3357900381088257 1.5 0 1.164209961891174 0 0.75 C 0 0.3357900381088257 0.3357900381088257 0 0.75 0 Z"/></g></g><g transform="translate(-1632 -177)"><g class="c" transform="translate(1635 181)"><path class="e" d="M 8.399999618530273 0.7000000476837158 L 0.6000000238418579 0.7000000476837158 C 0.5448600053787231 0.7000000476837158 0.5 0.6551400423049927 0.5 0.6000000238418579 C 0.5 0.5448600053787231 0.5448600053787231 0.5 0.6000000238418579 0.5 L 8.399999618530273 0.5 C 8.455140113830566 0.5 8.5 0.5448600053787231 8.5 0.6000000238418579 C 8.5 0.6551400423049927 8.455140113830566 0.7000000476837158 8.399999618530273 0.7000000476837158 Z"/><path class="f" d="M 0.6000003814697266 0 L 8.399999618530273 0 C 8.731369972229004 0 9 0.2686300277709961 9 0.6000000238418579 C 9 0.9313700199127197 8.731369972229004 1.200000047683716 8.399999618530273 1.200000047683716 L 0.6000003814697266 1.200000047683716 C 0.2686300277709961 1.200000047683716 0 0.9313700199127197 0 0.6000000238418579 C 0 0.2686300277709961 0.2686300277709961 0 0.6000003814697266 0 Z"/></g><g class="c" transform="translate(1632 181)"><path class="e" d="M 0.75 1 C 0.6121500134468079 1 0.5 0.8878499865531921 0.5 0.75 C 0.5 0.6121500134468079 0.6121500134468079 0.5 0.75 0.5 C 0.8878499865531921 0.5 1 0.6121500134468079 1 0.75 C 1 0.8878499865531921 0.8878499865531921 1 0.75 1 Z"/><path class="f" d="M 0.75 0 C 1.164209961891174 0 1.5 0.3357900381088257 1.5 0.75 C 1.5 1.164209961891174 1.164209961891174 1.5 0.75 1.5 C 0.3357900381088257 1.5 0 1.164209961891174 0 0.75 C 0 0.3357900381088257 0.3357900381088257 0 0.75 0 Z"/></g></g><g transform="translate(-1632 -173)"><g class="c" transform="translate(1635 181)"><path class="e" d="M 8.399999618530273 0.7000000476837158 L 0.6000000238418579 0.7000000476837158 C 0.5448600053787231 0.7000000476837158 0.5 0.6551400423049927 0.5 0.6000000238418579 C 0.5 0.5448600053787231 0.5448600053787231 0.5 0.6000000238418579 0.5 L 8.399999618530273 0.5 C 8.455140113830566 0.5 8.5 0.5448600053787231 8.5 0.6000000238418579 C 8.5 0.6551400423049927 8.455140113830566 0.7000000476837158 8.399999618530273 0.7000000476837158 Z"/><path class="f" d="M 0.6000003814697266 0 L 8.399999618530273 0 C 8.731369972229004 0 9 0.2686300277709961 9 0.6000000238418579 C 9 0.9313700199127197 8.731369972229004 1.200000047683716 8.399999618530273 1.200000047683716 L 0.6000003814697266 1.200000047683716 C 0.2686300277709961 1.200000047683716 0 0.9313700199127197 0 0.6000000238418579 C 0 0.2686300277709961 0.2686300277709961 0 0.6000003814697266 0 Z"/></g><g class="c" transform="translate(1632 181)"><path class="e" d="M 0.75 1 C 0.6121500134468079 1 0.5 0.8878499865531921 0.5 0.75 C 0.5 0.6121500134468079 0.6121500134468079 0.5 0.75 0.5 C 0.8878499865531921 0.5 1 0.6121500134468079 1 0.75 C 1 0.8878499865531921 0.8878499865531921 1 0.75 1 Z"/><path class="f" d="M 0.75 0 C 1.164209961891174 0 1.5 0.3357900381088257 1.5 0.75 C 1.5 1.164209961891174 1.164209961891174 1.5 0.75 1.5 C 0.3357900381088257 1.5 0 1.164209961891174 0 0.75 C 0 0.3357900381088257 0.3357900381088257 0 0.75 0 Z"/></g></g></g></g></g></svg>