<svg xmlns="http://www.w3.org/2000/svg" width="25.793" height="25.793" viewBox="0 0 25.793 25.793"><defs><style>.a{fill:none;}.b{fill:#0f5eea;}</style></defs><path class="a" d="M0,0H25.793V25.793H0Z"/><path class="b" d="M14.06,5.8a2.149,2.149,0,1,0-2.149-2.149A2.156,2.156,0,0,0,14.06,5.8ZM10.084,9.453,7.333,23.327a1.07,1.07,0,0,0,1.053,1.279h.086a1.08,1.08,0,0,0,1.053-.838l1.741-7.759,2.257,2.149v5.374a1.075,1.075,0,1,0,2.149,0V17.47a2.137,2.137,0,0,0-.666-1.558L13.415,14.4l.645-3.224a7.868,7.868,0,0,0,4.686,2.59,1.075,1.075,0,0,0,.312-2.128,5.227,5.227,0,0,1-3.708-2.5l-1.075-1.72a2.306,2.306,0,0,0-2.848-.9L7.311,8.249A2.161,2.161,0,0,0,6,10.237v2.547a1.075,1.075,0,0,0,2.149,0V10.205l1.934-.752" transform="translate(0.448 0.112)"/></svg>