<svg xmlns="http://www.w3.org/2000/svg" width="24" height="24" viewBox="0 0 24 24"><defs><style>.a{fill:#fff;}.b{fill:#0f5eea;stroke:#0f5eea;stroke-width:0.4px;}</style></defs><g transform="translate(-2.351 -0.342)"><path class="a" d="M0,0H24V24H0Z" transform="translate(2.351 0.342)"/><g transform="translate(3)"><path class="b" d="M11.846,1.5A10.339,10.339,0,0,0,3.833,18.382l.357.428h0a10.282,10.282,0,0,0,15.284,0h0l.357-.428A10.339,10.339,0,0,0,11.846,1.5Zm0,.714A9.625,9.625,0,0,1,19.638,17.5v-.036l-.121-.2-.207-.328a2.019,2.019,0,0,0-.143-.2c-.071-.1-.136-.2-.214-.3l-.157-.2c-.078-.093-.15-.186-.228-.271l-.178-.193c-.078-.086-.157-.171-.243-.25s-.128-.121-.193-.186l-.25-.228-.207-.171-.278-.235L17,14.543l-.278-.193-.228-.143-.285-.171-.243-.128-.3-.15-.25-.086-.314-.128-.25-.1-.328-.107-.243-.064-.342-.086-.257-.064-.357-.064-.243-.043-.407-.043H11.018l-.407.043-.243.043-.357.064-.257.064-.342.086-.25.078-.328.107-.25.1-.314.128-.243.114-.3.15-.243.128-.285.171-.228.143-.278.193-.221.114-.264.207L6,15.078l-.25.228c-.064.064-.136.121-.193.186s-.164.164-.243.25l-.178.193c-.078.086-.15.178-.228.271l-.157.2c-.078.1-.143.2-.214.3a2.019,2.019,0,0,0-.143.2l-.207.328-.121.2v.036A9.625,9.625,0,0,1,11.846,2.214Zm0,19.265a9.576,9.576,0,0,1-7.307-3.368l.078-.164c.05-.086.093-.171.143-.25l.15-.25.164-.235.164-.235.186-.228.186-.221c.064-.071.121-.143.186-.207l.2-.214.2-.193a1.863,1.863,0,0,1,.214-.193l.207-.186a2.8,2.8,0,0,1,.235-.178,2.533,2.533,0,0,1,.221-.164l.235-.164.228-.157.257-.143.235-.136.264-.128.243-.121.278-.114.25-.1.293-.093.243-.086.307-.078.25-.057.328-.064.235-.036a1.1,1.1,0,0,0,.371-.043h1.555a1.1,1.1,0,0,1,.371.043l.235.036.328.064.25.057.307.078.243.086.293.093.25.1.278.114.243.121.264.128.235.136.257.143.228.157.235.164a2.532,2.532,0,0,1,.221.164,2.8,2.8,0,0,1,.228.178l.207.186a1.862,1.862,0,0,1,.214.193l.2.193.2.214c.064.064.121.136.186.207l.186.221.171.228.164.235.164.235.15.25c.05.078.093.164.143.25l.078.164a9.576,9.576,0,0,1-7.328,3.368Z" transform="translate(0 0)"/><path class="b" d="M14.711,12.922A3.211,3.211,0,1,0,11.5,9.711,3.211,3.211,0,0,0,14.711,12.922Zm0-5.708a2.5,2.5,0,1,1-2.5,2.5,2.5,2.5,0,0,1,2.5-2.5Z" transform="translate(-2.865 -1.432)"/></g></g></svg>