<svg xmlns="http://www.w3.org/2000/svg" width="54.651" height="37.031" viewBox="0 0 54.651 37.031"><defs><style>.a{opacity:0.84;}.b{fill:#0f5eea;}</style></defs><g class="a"><rect class="b" width="54.651" height="0.518" transform="translate(0 36.513)"/><rect class="b" width="0.518" height="9.985" transform="translate(3.589 23.134)"/><path class="b" d="M58.2,40.813,58.07,15.478H72.619V38.217H72.1V16H58.594l.127,24.809Z" transform="translate(-22.69 -6.048)"/><rect class="b" width="0.518" height="3.741" transform="translate(49.411 29.446)"/><path class="b" d="M47.2,58.07H28.6V54H47.2Zm-18.083-.518H46.677V54.542H29.118Z" transform="translate(-11.175 -21.1)"/><rect class="b" width="0.451" height="3.333" transform="translate(19.149 14.257)"/><rect class="b" width="0.451" height="3.333" transform="translate(21.257 14.257)"/><rect class="b" width="0.451" height="3.333" transform="translate(23.359 14.257)"/><rect class="b" width="0.451" height="3.333" transform="translate(25.467 14.257)"/><rect class="b" width="0.451" height="3.333" transform="translate(27.576 14.257)"/><rect class="b" width="0.451" height="3.333" transform="translate(29.677 14.257)"/><rect class="b" width="0.451" height="3.333" transform="translate(5.313 14.232)"/><rect class="b" width="0.451" height="3.333" transform="translate(7.415 14.232)"/><rect class="b" width="0.451" height="3.333" transform="translate(9.523 14.232)"/><rect class="b" width="0.451" height="3.333" transform="translate(11.631 14.232)"/><rect class="b" width="0.451" height="3.333" transform="translate(13.732 14.232)"/><rect class="b" width="0.451" height="3.333" transform="translate(15.841 14.232)"/><rect class="b" width="0.451" height="3.333" transform="translate(37.226 14.232)"/><rect class="b" width="0.451" height="3.333" transform="translate(39.334 14.232)"/><rect class="b" width="0.451" height="3.333" transform="translate(41.442 14.232)"/><rect class="b" width="0.451" height="3.333" transform="translate(43.544 14.232)"/><rect class="b" width="0.451" height="3.333" transform="translate(45.652 14.232)"/><rect class="b" width="0.451" height="3.333" transform="translate(47.76 14.232)"/><rect class="b" width="0.451" height="3.333" transform="translate(31.785 14.257)"/><rect class="b" width="0.451" height="3.333" transform="translate(33.893 14.257)"/><path class="b" d="M35.28,13.036H33V9.1a1.151,1.151,0,1,1,2.285,0Zm-1.767-.518h1.218V9.1a.622.622,0,1,0-1.218,0Z" transform="translate(-12.889 -3.05)"/><path class="b" d="M39.793,12.993H37.508V9.051a1.146,1.146,0,1,1,2.285,0Zm-1.767-.518h1.218V9.051a.61.61,0,1,0-1.218,0Z" transform="translate(-14.655 -3.056)"/><path class="b" d="M44.292,12.866H42V8.931a1.151,1.151,0,1,1,2.285,0Zm-1.767-.518h1.249V8.931a.621.621,0,1,0-1.218,0Z" transform="translate(-16.406 -2.984)"/><path class="b" d="M48.813,12.823H46.528V8.881a1.146,1.146,0,1,1,2.285,0ZM47.046,12.3h1.218V8.881a.61.61,0,0,0-1.218,0Z" transform="translate(-18.179 -2.99)"/><path class="b" d="M53.306,12.7H51V8.761a1.151,1.151,0,1,1,2.285,0Zm-1.767-.518h1.218V8.761a.621.621,0,1,0-1.218,0Z" transform="translate(-19.923 -2.917)"/><rect class="b" width="7.451" height="0.518" transform="translate(4.996 11.838)"/><rect class="b" width="7.598" height="0.518" transform="translate(40.918 11.838)"/><rect class="b" width="9.827" height="0.518" transform="translate(5.776 19.837)"/><rect class="b" width="9.827" height="0.518" transform="translate(38.043 19.904)"/><rect class="b" width="11.332" height="0.518" transform="translate(21.348 34.082)"/><rect class="b" width="13.648" height="0.518" transform="translate(20.252 35.331)"/><rect class="b" width="0.518" height="0.067" transform="translate(35.313 1.669)"/><path class="b" d="M62.971,4.418H60.559V3.9h1.895V2.938H58.28V2.42h4.689Z" transform="translate(-22.772 -0.945)"/><path class="b" d="M46.7,4.418H21.81v-2h4.375v.518H22.328V3.9H46.7Z" transform="translate(-8.522 -0.945)"/><path class="b" d="M47.464,1.992H27.56V0h19.9ZM28.078,1.475H46.965V.518H28.078Z" transform="translate(-10.768)"/><rect class="b" width="1.578" height="0.518" transform="translate(13.964 11.838)"/><rect class="b" width="1.578" height="0.518" transform="translate(37.214 11.838)"/><path class="b" d="M45.31,45.19H37.39V33.5a3.689,3.689,0,0,1,3.93-3.375c2.169,0,3.979,1.521,3.979,3.377Zm-7.39-.518h6.873V33.5c0-1.572-1.547-2.846-3.461-2.846a3.158,3.158,0,0,0-3.412,2.857Z" transform="translate(-14.61 -11.772)"/><path class="b" d="M44.871,47.725H39.46V39.147a2.711,2.711,0,0,1,5.411,0ZM40,47.207h4.368v-8.06a2.193,2.193,0,0,0-4.368,0Z" transform="translate(-15.419 -14.307)"/><path class="b" d="M32.418,35.776a1.3,1.3,0,1,1,1.3-1.3A1.3,1.3,0,0,1,32.418,35.776Zm0-2.078a.325.325,0,1,0,0-.018Z" transform="translate(-12.16 -12.965)"/><path class="b" d="M53.708,35.776a1.3,1.3,0,1,1,1.3-1.3A1.3,1.3,0,0,1,53.708,35.776Zm0-2.078a.325.325,0,1,0,0-.018Z" transform="translate(-20.479 -12.965)"/><path class="b" d="M20.244,40.154h-.518V16.112L6.414,15.984V32.111H5.89V15.46l14.354.134Z" transform="translate(-2.301 -6.041)"/><path class="b" d="M19.636,58.119H4.33V54H19.636ZM4.855,57.594H19.111v-3.1H4.854Z" transform="translate(-1.692 -21.1)"/><path class="b" d="M73.67,58.108H58.31V53.94H73.67ZM58.828,57.59H73.152V54.464H58.828Z" transform="translate(-22.784 -21.076)"/><rect class="b" width="0.518" height="1.432" transform="translate(5.49 34.228)"/><rect class="b" width="0.518" height="1.432" transform="translate(6.787 34.228)"/><rect class="b" width="0.518" height="1.432" transform="translate(8.085 34.228)"/><rect class="b" width="0.518" height="1.432" transform="translate(9.383 34.228)"/><rect class="b" width="0.518" height="1.432" transform="translate(10.68 34.228)"/><rect class="b" width="0.518" height="1.432" transform="translate(11.978 34.228)"/><rect class="b" width="0.518" height="1.432" transform="translate(13.275 34.228)"/><rect class="b" width="0.518" height="1.432" transform="translate(14.574 34.228)"/><rect class="b" width="0.518" height="1.432" transform="translate(38.408 34.235)"/><rect class="b" width="0.518" height="1.432" transform="translate(39.705 34.235)"/><rect class="b" width="0.518" height="1.432" transform="translate(41.004 34.235)"/><rect class="b" width="0.518" height="1.432" transform="translate(42.301 34.235)"/><rect class="b" width="0.518" height="1.432" transform="translate(43.593 34.235)"/><rect class="b" width="0.518" height="1.432" transform="translate(44.891 34.235)"/><rect class="b" width="0.518" height="1.432" transform="translate(46.188 34.235)"/><rect class="b" width="0.518" height="1.432" transform="translate(47.486 34.235)"/><path class="b" d="M20.731,13.565H4V9.16H20.731ZM4.518,13.047H20.206V9.672H4.518Z" transform="translate(-1.563 -3.579)"/><path class="b" d="M73.011,13.565H56.28V9.16H73.011ZM56.8,13.047H72.493V9.672H56.8Z" transform="translate(-21.991 -3.579)"/><rect class="b" width="0.518" height="3.101" transform="translate(14.586 2.961)"/><rect class="b" width="0.518" height="3.101" transform="translate(38.383 2.961)"/><rect class="b" width="0.518" height="1.432" transform="translate(6.001 7.067)"/><rect class="b" width="0.518" height="1.432" transform="translate(7.299 7.067)"/><rect class="b" width="0.518" height="1.432" transform="translate(8.597 7.067)"/><rect class="b" width="0.518" height="1.432" transform="translate(9.895 7.067)"/><rect class="b" width="0.518" height="1.432" transform="translate(11.186 7.067)"/><rect class="b" width="0.518" height="1.432" transform="translate(12.484 7.067)"/><rect class="b" width="0.518" height="1.432" transform="translate(13.781 7.067)"/><rect class="b" width="0.518" height="1.432" transform="translate(15.079 7.067)"/><rect class="b" width="0.518" height="1.432" transform="translate(37.854 7.067)"/><rect class="b" width="0.518" height="1.432" transform="translate(39.151 7.067)"/><rect class="b" width="0.518" height="1.432" transform="translate(40.449 7.067)"/><rect class="b" width="0.518" height="1.432" transform="translate(41.747 7.067)"/><rect class="b" width="0.518" height="1.432" transform="translate(43.044 7.067)"/><rect class="b" width="0.518" height="1.432" transform="translate(44.342 7.067)"/><rect class="b" width="0.518" height="1.432" transform="translate(45.64 7.067)"/><rect class="b" width="0.518" height="1.432" transform="translate(46.938 7.067)"/><rect class="b" width="17.9" height="0.518" transform="translate(17.601 12.35)"/></g></svg>