<svg xmlns="http://www.w3.org/2000/svg" width="27.404" height="25.576" viewBox="0 0 27.404 25.576"><defs><style>.a{fill:#ff8f43;}.b{fill:#3f72e9;}</style></defs><g transform="translate(-1 -2)"><path class="a" d="M26.577,19.356V10.623A3.654,3.654,0,0,0,28.4,7.481a.913.913,0,0,0-.2-.566L25.371,3.37A3.654,3.654,0,0,0,22.521,2H6.883a3.654,3.654,0,0,0-2.85,1.37L1.2,6.914a.913.913,0,0,0-.2.566,3.654,3.654,0,0,0,1.827,3.142V23.009a.913.913,0,0,0,.913.913H19.36a4.567,4.567,0,1,0,7.216-4.567ZM4.654,11.135a3.654,3.654,0,0,0,2.512-1,3.654,3.654,0,0,0,5.024,0,3.654,3.654,0,0,0,5.024,0,3.654,3.654,0,0,0,5.024,0,3.654,3.654,0,0,0,2.512,1v7.4A4.567,4.567,0,0,0,19.36,22.1H4.654ZM23.836,25.75a2.74,2.74,0,1,1,2.74-2.74,2.74,2.74,0,0,1-2.74,2.74Z"/><path class="b" d="M1,0A1,1,0,1,1,0,1,1,1,0,0,1,1,0Z" transform="translate(22.702 21.788)"/></g></svg>