<svg xmlns="http://www.w3.org/2000/svg" width="24" height="24" viewBox="0 0 24 24"><defs><style>.a{fill:#fff;}.b{fill:#2c3e50;}.c{fill:#0f5eea;stroke:#0f5eea;stroke-width:0.4px;}</style></defs><g transform="translate(-0.294 0.964)"><path class="a" d="M0,0H24V24H0Z" transform="translate(0.294 -0.964)"/><g transform="translate(3 1)"><path class="b" d="M24.525,45.843l3.877,3.9a.47.47,0,0,1,.143.333.4.4,0,0,1-.143.333l-3.853,3.853a.46.46,0,0,1-.666,0,.47.47,0,0,1-.143-.333.432.432,0,0,1,.143-.333l3.045-3.068H11.776a.476.476,0,1,1,0-.951H26.927l-3.068-3.068a.46.46,0,0,1,0-.666A.46.46,0,0,1,24.525,45.843Z" transform="translate(-9.158 -40.112)"/><path class="c" d="M43.076,16h9.136a2.079,2.079,0,0,1,2.076,2.069v3.373h-.831V18.069a1.247,1.247,0,0,0-1.246-1.241H43.076a1.247,1.247,0,0,0-1.246,1.241V34a1.247,1.247,0,0,0,1.246,1.241h9.136A1.247,1.247,0,0,0,53.458,34V30.421h.831V34a2.079,2.079,0,0,1-2.076,2.069H43.076A2.079,2.079,0,0,1,41,34V18.069A2.079,2.079,0,0,1,43.076,16Z" transform="translate(-41 -16)"/></g></g></svg>