<svg xmlns="http://www.w3.org/2000/svg" width="21.147" height="21.147" viewBox="0 0 21.147 21.147"><defs><style>.a{fill:#3a5976;}.b{fill:#f2f2f2;}</style></defs><path class="a" d="M28.147,17.574A10.574,10.574,0,1,1,17.574,7,10.574,10.574,0,0,1,28.147,17.574Zm0,0" transform="translate(-7 -7)"/><path class="b" d="M167.012,112.049v-2.715h-1.964a.853.853,0,0,0-.066.341.465.465,0,0,0-.044.16,2.689,2.689,0,0,1-1.781,2.092,1.829,1.829,0,0,1-.856.121v2.189h1.443c.024,3.079.024,4.666.024,4.746v.183a2.72,2.72,0,0,0,2.367,2.451,7.477,7.477,0,0,0,1.78.2,9.326,9.326,0,0,0,2.32-.362v-2.575c-.448.121-.856.223-1.217.322a1.851,1.851,0,0,1-1.759-.34.808.808,0,0,1-.135-.223,5,5,0,0,1-.108-.984v-3.42h3.13v-2.188Zm0,0" transform="translate(-155.985 -104.697)"/></svg>