<svg xmlns="http://www.w3.org/2000/svg" width="24.679" height="20.052" viewBox="0 0 24.679 20.052"><defs><style>.a{fill:#03a9f4;}</style></defs><path class="a" d="M24.679,50.374a10.548,10.548,0,0,1-2.915.8,5.031,5.031,0,0,0,2.226-2.8A10.111,10.111,0,0,1,20.781,49.6a5.059,5.059,0,0,0-8.752,3.46,5.21,5.21,0,0,0,.117,1.154A14.321,14.321,0,0,1,1.718,48.922a5.061,5.061,0,0,0,1.555,6.762,5,5,0,0,1-2.286-.623v.056a5.083,5.083,0,0,0,4.053,4.971,5.05,5.05,0,0,1-1.326.167,4.473,4.473,0,0,1-.958-.086,5.108,5.108,0,0,0,4.728,3.524A10.166,10.166,0,0,1,1.211,65.85,9.474,9.474,0,0,1,0,65.781a14.244,14.244,0,0,0,7.761,2.27,14.3,14.3,0,0,0,14.4-14.4c0-.224-.008-.44-.019-.654A10.093,10.093,0,0,0,24.679,50.374Z" transform="translate(0 -48)"/></svg>