<svg xmlns="http://www.w3.org/2000/svg" width="72.763" height="72.764" viewBox="0 0 72.763 72.764"><defs><style>.a{fill:#39e140;}.b{fill:#fafafa;}</style></defs><path class="a" d="M36.391,0h-.018A36.359,36.359,0,0,0,6.926,57.706L2.392,71.222l13.984-4.47A36.375,36.375,0,1,0,36.391,0Z"/><path class="b" d="M149.58,151.824c-.878,2.479-4.361,4.534-7.14,5.134-1.9.4-4.384.728-12.743-2.738-10.692-4.429-17.577-15.294-18.114-16-.514-.7-4.32-5.753-4.32-10.974a11.615,11.615,0,0,1,3.72-8.854,5.286,5.286,0,0,1,3.72-1.305c.45,0,.855.023,1.219.041,1.069.045,1.605.109,2.31,1.8.878,2.115,3.015,7.336,3.27,7.872a2.166,2.166,0,0,1,.155,1.969,6.287,6.287,0,0,1-1.178,1.669c-.537.618-1.046,1.091-1.583,1.755-.491.578-1.046,1.2-.427,2.265a32.293,32.293,0,0,0,5.9,7.335,26.747,26.747,0,0,0,8.532,5.262,2.3,2.3,0,0,0,2.565-.4,44.025,44.025,0,0,0,2.842-3.766,2.03,2.03,0,0,1,2.61-.791c.982.341,6.18,2.911,7.249,3.443s1.774.791,2.033,1.242S150.458,149.341,149.58,151.824Z" transform="translate(-92.02 -100.448)"/></svg>