<svg xmlns="http://www.w3.org/2000/svg" width="26.544" height="18.702" viewBox="0 0 26.544 18.702"><defs><style>.a{fill:red;}.b{fill:#fff;}</style></defs><path class="a" d="M33.99,36.92a3.335,3.335,0,0,0-2.347-2.362C29.573,34,21.272,34,21.272,34s-8.3,0-10.371.558A3.335,3.335,0,0,0,8.555,36.92,34.985,34.985,0,0,0,8,43.351a34.985,34.985,0,0,0,.555,6.431A3.335,3.335,0,0,0,10.9,52.144c2.07.558,10.371.558,10.371.558s8.3,0,10.371-.558a3.335,3.335,0,0,0,2.347-2.362,34.985,34.985,0,0,0,.555-6.431A34.985,34.985,0,0,0,33.99,36.92Z" transform="translate(-8 -34)"/><path class="b" d="M78,77.725l6.938-3.947L78,69.831Z" transform="translate(-67.443 -64.427)"/></svg>